<?xml version="1.0" encoding="UTF-8"?>
<svg id="Layer_2" data-name="Layer 2" xmlns="http://www.w3.org/2000/svg" viewBox="0 0 1162.61 1129.58">
  <defs>
    <style>
      .cls-1 {
        fill: #9797fc;
      }

      .cls-2 {
        fill: #00005b;
      }
    </style>
  </defs>
  <g id="Layer_1-2" data-name="Layer 1">
    <g>
      <path class="cls-2" d="M1162.13,921.55c-.32,119.53-90.99,207.9-211.32,207.98-123.39.08-246.78.02-370.18.02s-243.94.02-365.9-.01c-125.53-.02-214.52-88.33-214.61-213.49C-.04,681.82-.03,447.6.12,213.37.2,88.31,89.16.08,214.89.04,460.25-.02,705.61-.02,950.97.04c120.27.03,210.81,88.37,211.15,208.14.66,237.78.64,475.58.01,713.37Z"/>
      <g>
        <path class="cls-1" d="M570.81,811.76c-14.75-1.61-35.91,6.91-49.42-3.33-13.27-10.07-13.57-31.91-19.56-48.58-6.84-19-13.86-37.96-19.75-57.26-2.61-8.55-7.04-10.92-15.42-10.87-51.93.27-103.87.41-155.8-.1-9.89-.1-13.31,4.08-15.91,12.5-9.43,30.65-19.9,60.99-29.04,91.72-3.46,11.63-9.1,16.19-21.55,15.65-22.64-.97-45.36-.24-68.04-.29-20.74-.05-21.07-.33-14.43-19.51,19.63-56.69,39.38-113.34,59.18-169.97,30.19-86.35,60.47-172.67,90.67-259.01,4.73-13.51,9.12-27.21,8.24-41.73-.65-10.68,4.66-13.05,14.05-12.98,35.81.28,71.64.36,107.45-.05,9.39-.11,13.66,3.69,16.69,12.23,56.48,158.96,113.1,317.87,170.08,476.64,4.67,13.01.21,15.49-11.51,15.07-14.31-.52-28.65-.12-45.95-.12ZM387.81,399.08c-20.28,67.06-39.66,131.16-59.55,196.94,37.83,0,74.68-.21,111.51.13,10.18.09,8.36-4.6,6.28-11.02-7.69-23.73-15.12-47.54-22.55-71.35-11.63-37.26-23.2-74.54-35.69-114.7Z"/>
        <path class="cls-1" d="M972.05,757.64v1.79q0,45.05-44.01,54.28c-41.31,8.62-82.96,10.83-124.58,3.57-67.5-11.78-115.45-49.28-135.73-114.81-27.27-88.11-16.72-171.12,53.52-236.74,56.7-52.96,126.01-55.13,194.19-26.93,65.09,26.93,86.02,84.78,89.05,150.72.05,1.19.06,2.38,0,3.57-3.24,62.93,6.87,56.02-60.14,55.35-55.49-.56-111.04-.02-166.53-1.7-13.74-.42-14.52,4.43-11.36,15.77,12.4,44.54,50,69.53,106.94,68.49,28.05-.51,56.22-3.31,82.81-12.87,14.83-5.33,17.23-.36,16,12.74-.83,8.85-.16,17.84-.16,26.77ZM830.64,577.54v-.32c19.1,0,38.19.15,57.29-.05,12.93-.14,17.75-5.72,14.68-19.32-7.65-33.92-34.66-53.41-73.01-51.34-32.13,1.73-61.64,30.12-64.85,61.53-.94,9.17,3.7,9.6,10.39,9.55,18.5-.14,37-.05,55.5-.05Z"/>
      </g>
    </g>
  </g>
</svg>