<?xml version="1.0" encoding="UTF-8"?>
<svg id="Layer_2" data-name="Layer 2" xmlns="http://www.w3.org/2000/svg" viewBox="0 0 1133.36 1107.33">
  <defs>
    <style>
      .cls-1 {
        fill: #320000;
      }

      .cls-2 {
        fill: #300;
      }

      .cls-3 {
        fill: #fb9700;
      }
    </style>
  </defs>
  <g id="Layer_1-2" data-name="Layer 1">
    <g>
      <rect class="cls-1" width="1133.36" height="1107.33" rx="203.48" ry="203.48"/>
      <g>
        <path class="cls-2" d="M821.59,285.71c-35.1.21-59.06,24.13-58.85,58.84.18,35.42,23.64,59.09,58.6,59.16,35.07.07,59.09-24.99,58.67-61.12-.43-34.71-23.42-57.14-58.42-56.89ZM873.34,456.36c.03-10.04-3.55-13.52-13.42-13.34-25.34.43-50.72.78-76.06-.14-13.7-.5-16.89,4.93-16.79,17.64.53,56.72.25,113.43.25,170.15s.07,115.84-.11,173.73c-.03,9.9.82,17.46,13.81,17.25,26.55-.5,53.09-.43,79.61-.04,10.54.14,12.71-5,12.67-14.27-.18-116.98-.18-234,.04-350.98ZM714.48,803.78c-10.47-26.94-19.52-54.41-29.17-81.63-45.29-127.88-90.5-255.79-135.9-383.63-2.63-7.38-3.48-16.15-15.37-16.01-36.56.53-73.11.28-109.7.14-8.02-.04-12.07,2.8-11.75,11.36.75,19.34-6.07,37.12-12.28,54.94-47.77,137.6-95.65,275.2-143.42,412.84-6.28,18.07-5.54,19.13,13.2,19.24,22.4.14,44.83-.46,67.22.25,11.75.36,18.39-3.27,21.93-15.12,8.91-29.95,19.24-59.48,28.32-89.4,2.95-9.69,6.92-14.41,18.17-14.27,49.55.67,99.09.57,148.64.07,9.83-.11,14.87,2.63,17.75,12.39,5.36,18.07,12.03,35.74,18.14,53.63q17.92,52.49,72.72,52.49c12.99,0,25.98-.5,38.93.14,13.88.67,18.07-3.3,12.56-17.43ZM521.83,607.16c-28.82-.85-57.67-.78-86.49,0-13.38.32-14.13-4.26-10.65-15.51,18.17-59.02,37.98-117.55,54.02-181.29,5.96,20.62,10.68,38.08,16.08,55.33,12.95,41.6,25.77,83.23,39.64,124.5,4.65,13.84,1.53,17.39-12.6,16.97Z"/>
        <path class="cls-3" d="M714.48,803.78c-10.47-26.94-19.52-54.41-29.17-81.63-45.29-127.88-90.5-255.79-135.9-383.63-2.63-7.38-3.48-16.15-15.37-16.01-36.56.53-73.11.28-109.7.14-8.02-.04-12.07,2.8-11.75,11.36.75,19.34-6.07,37.12-12.28,54.94-47.77,137.6-95.65,275.2-143.42,412.84-6.28,18.07-5.54,19.13,13.2,19.24,22.4.14,44.83-.46,67.22.25,11.75.36,18.39-3.27,21.93-15.12,8.91-29.95,19.24-59.48,28.32-89.4,2.95-9.69,6.92-14.41,18.17-14.27,49.55.67,99.09.57,148.64.07,9.83-.11,14.87,2.63,17.75,12.39,5.36,18.07,12.03,35.74,18.14,53.63q17.92,52.49,72.72,52.49c12.99,0,25.98-.5,38.93.14,13.88.67,18.07-3.3,12.56-17.43ZM521.83,607.16c-28.82-.85-57.67-.78-86.49,0-13.38.32-14.13-4.26-10.65-15.51,18.17-59.02,37.98-117.55,54.02-181.29,5.96,20.62,10.68,38.08,16.08,55.33,12.95,41.6,25.77,83.23,39.64,124.5,4.65,13.84,1.53,17.39-12.6,16.97Z"/>
        <path class="cls-3" d="M767.31,630.67c0-56.72.3-113.45-.23-170.17-.12-12.69,3.09-18.13,16.79-17.62,25.33.93,50.71.56,76.07.13,9.86-.17,13.44,3.3,13.42,13.36-.24,116.99-.21,233.99-.04,350.98.01,9.25-2.13,14.41-12.67,14.25-26.53-.39-53.08-.46-79.61.03-12.98.24-13.84-7.32-13.81-17.23.18-57.91.09-115.81.09-173.72Z"/>
        <path class="cls-3" d="M821.6,285.7c34.98-.21,57.99,22.2,58.4,56.9.43,36.15-23.61,61.2-58.65,61.13-34.96-.07-58.41-23.74-58.62-59.16-.2-34.7,23.75-58.66,58.87-58.87Z"/>
      </g>
    </g>
  </g>
</svg>