<?xml version="1.0" encoding="UTF-8"?>
<svg id="Layer_2" data-name="Layer 2" xmlns="http://www.w3.org/2000/svg" viewBox="0 0 1766.69 2003.62">
  <defs>
    <style>
      .cls-1 {
        fill: #264de4;
      }

      .cls-2 {
        fill: #fff;
      }

      .cls-3 {
        fill: #ebebeb;
      }

      .cls-4 {
        fill: #2965f1;
      }
    </style>
  </defs>
  <g id="css">
    <g>
      <path class="cls-1" d="M882.26,2003.62l-721.48-200.29L0,0h1766.69l-160.95,1803.05-723.48,200.57h0Z"/>
      <path class="cls-4" d="M1467.95,1688.23l137.53-1540.79h-722.14v1702.86l584.61-162.07h0Z"/>
      <path class="cls-3" d="M368.59,816.27l19.82,221.17h494.94v-221.17H368.59ZM328.75,368.62l20.1,221.17h534.49v-221.17H328.75ZM883.34,1390.68l-.97.26-246.32-66.51-15.75-176.39h-222.02l30.98,347.27,453.05,125.76,1.02-.28v-230.11Z"/>
      <path class="cls-2" d="M1396.69,816.27l39.92-447.65h-554.03v221.17h311.65l-20.12,226.48h-291.52v221.17h272.35l-25.68,286.84-246.68,66.58v230.1l453.41-125.66,3.32-37.37,51.98-582.27,5.39-59.39h0Z"/>
    </g>
  </g>
</svg>