<?xml version="1.0" encoding="UTF-8"?>
<svg id="Layer_2" data-name="Layer 2" xmlns="http://www.w3.org/2000/svg" viewBox="0 0 1766.69 2003.61">
  <defs>
    <style>
      .cls-1 {
        fill: #fff;
      }

      .cls-2 {
        fill: #e44d26;
      }

      .cls-3 {
        fill: #f16529;
      }

      .cls-4 {
        fill: #ebebeb;
      }
    </style>
  </defs>
  <g id="html">
    <g>
      <path class="cls-2" d="M1766.69,0l-160.95,1803.05-723.48,200.57-721.48-200.29L0,0h1766.69,0Z"/>
      <path class="cls-3" d="M883.34,1850.3l584.61-162.07,137.53-1540.79h-722.14v1702.86Z"/>
      <path class="cls-4" d="M570.46,589.79h312.88v-221.17H328.75l5.29,59.34,54.36,609.49h494.94v-221.17h-292.67l-20.21-226.48ZM620.31,1148.03h-222.02l30.98,347.27,453.05,125.76,1.02-.28v-230.11l-.97.26-246.32-66.51-15.75-176.39h0Z"/>
      <path class="cls-1" d="M882.58,1037.44h272.35l-25.68,286.84-246.68,66.58v230.1l453.41-125.66,3.32-37.37,51.98-582.27,5.39-59.39h-514.11v221.17h0ZM882.58,589.25v.54h534.23l4.43-49.71,10.08-112.13,5.28-59.34h-554.03v220.64h0Z"/>
    </g>
  </g>
</svg>