<?xml version="1.0" encoding="UTF-8"?>
<svg id="Layer_2" data-name="Layer 2" xmlns="http://www.w3.org/2000/svg" viewBox="0 0 270.57 247.06">
  <defs>
    <style>
      .cls-1 {
        fill: #fff;
      }

      .cls-2 {
        fill: #36687f;
      }

      .cls-3 {
        fill: #7ec6de;
      }

      .cls-4 {
        fill: #38a5cc;
      }
    </style>
  </defs>
  <g id="katman_1" data-name="katman 1">
    <g>
      <path class="cls-1" d="M89.28,45.21c11.8-.2,23.6,0,35.41-.09,7.67,29.57,14.76,59.28,22.47,88.82,8.45-29.45,15.61-59.27,23.76-88.81,11.42.05,22.83-.12,34.24.13,0,36.07-.01,72.13,0,108.21-.07,1.24-.22,2.5-.43,3.75-8.8-.16-17.61.03-26.41-.12-.02-17.25-.05-34.5-.01-51.75-.04-6.29.14-12.59-.4-18.86-5.7,23.68-12.23,47.18-18.47,70.72-8.71-.11-17.42-.01-26.12-.08-5.57-20.69-10.92-41.43-16.41-62.14-1.16-3.78-2.06-7.64-2.36-11.6-.48,3.12-1.12,6.23-1.1,9.4-.05,21.44.14,42.9-.07,64.34-8.04.03-16.07.05-24.09-.03-.03-37.3.01-74.6,0-111.89"/>
      <path class="cls-4" d="M43.79,0c62.05.03,124.1.02,186.15,0,3.5.07,7.07-.27,10.53.46,4.45,1.57,8.04,5.23,9.74,9.62.55,63.95.29,127.91.27,191.87-68.86.18-137.71.07-206.56.04-.2-67.32.07-134.66-.13-202M89.28,45.21c.02,37.29-.02,74.59,0,111.88,8.03.08,16.05.06,24.09.03.21-21.45.02-42.9.07-64.34-.02-3.17.62-6.28,1.1-9.4.29,3.96,1.19,7.82,2.36,11.6,5.49,20.7,10.84,41.44,16.41,62.14,8.71.07,17.42-.03,26.12.08,6.24-23.54,12.77-47.03,18.47-70.72.53,6.27.36,12.57.4,18.86-.04,17.25-.01,34.51.01,51.75,8.79.15,17.6-.04,26.41.12.21-1.24.35-2.5.43-3.75-.01-36.08,0-72.14,0-108.21-11.42-.25-22.83-.07-34.24-.13-8.14,29.55-15.31,59.36-23.76,88.81-7.71-29.54-14.8-59.26-22.47-88.82-11.81.09-23.62-.1-35.41.1"/>
      <path class="cls-3" d="M.12,26.2C14.74,17.59,29.14,8.58,43.79,0c.2,67.34-.07,134.67.14,202-6.66,4.11-13.44,7.99-20.04,12.17-7.95,4.63-15.64,9.72-23.78,14.02C-.03,160.87-.04,93.53.12,26.2"/>
      <path class="cls-2" d="M250.22,10.1c.76,11.73.1,23.52.37,35.27,6.61.05,13.24.13,19.86,0,.2,67.22.12,134.45.04,201.68-77.03-.08-154.06-.02-231.07-.03-5.53.16-11.08-2.72-13.82-7.59-1.73-2.87-1.72-6.34-1.74-9.58.05-5.23,0-10.46.02-15.68,6.6-4.19,13.38-8.06,20.04-12.17,68.86.03,137.71.14,206.56-.04.04-63.96.3-127.92-.26-191.87"/>
    </g>
  </g>
</svg>