<?xml version="1.0" encoding="UTF-8"?>
<svg id="Layer_2" data-name="Layer 2" xmlns="http://www.w3.org/2000/svg" viewBox="0 0 1162.6 1129.58">
  <defs>
    <style>
      .cls-1 {
        fill: #011f37;
      }

      .cls-2 {
        fill: #30a5fb;
      }
    </style>
  </defs>
  <g id="Layer_1-2" data-name="Layer 1">
    <g>
      <path class="cls-1" d="M580.63,1129.55c-121.97,0-243.94.02-365.9,0-125.53-.03-214.51-88.33-214.6-213.49-.16-234.23-.16-468.46,0-702.69C.2,88.31,89.16.08,214.88.05c245.36-.06,490.73-.06,736.09,0,120.26.03,210.81,88.37,211.14,208.14.67,237.79.64,475.58.01,713.37-.32,119.53-90.99,207.9-211.32,207.98-123.39.08-246.79.02-370.18.02ZM261.67,544.2c0,77.55.42,155.1-.34,232.63-.16,16.81,4.84,22.73,21.87,21.7,22.01-1.34,44.2-1.06,66.25-.08,14.4.64,18.31-4.99,18.06-18.61-.7-39.12.91-78.3-.71-117.36-.87-20.85,3.52-28.77,26.49-26.87,31.13,2.57,62.62,1.34,93.64-4.9,128.02-25.77,186.38-168.67,109.71-271.05-39.63-52.92-97.23-69.56-160.17-70.74-50.58-.95-101.22,1.46-151.79.32-19.76-.45-23.62,6.44-23.41,24.47.9,76.82.38,153.66.38,230.5ZM840.78,407.61c-45.94-.27-69.34,4.03-97.72,17.97-78.85,38.71-86.79,142.64-14.69,192.43,20.64,14.25,43.1,24.86,66.48,33.88,14.58,5.63,28.93,12.03,42.85,19.13,9.81,5.01,17.93,12.88,16.56,25.15-1.49,13.24-11.4,19.06-23.34,21.6-6.92,1.47-14.02,2.65-21.07,2.86-39.16,1.19-76.87-6.04-111.63-24-17.68-9.13-20.23-3.52-19.39,13.01.94,18.46,1.2,37.07-.08,55.48-1.09,15.55,5.06,23.23,19.48,27.97,50.52,16.61,102.05,20.61,153.95,10.54,60.17-11.68,99.79-49.31,106.08-97.11,7.78-59.08-13.55-95.28-76.08-126.13-24.23-11.95-49.85-21.04-74.32-32.54-14.06-6.61-30.56-14.02-25.37-34.16,5-19.41,22.92-19.01,38.46-19.78,33.92-1.67,67.1,3.07,98.03,17.34,16.22,7.48,19.93,2.69,19.28-13.14-.75-18.47-1.15-37.07.13-55.49,1.05-15.21-5.67-21.71-19.32-25.38-25.7-6.9-51.79-9.49-78.26-9.66Z"/>
      <path class="cls-2" d="M261.67,544.2c0-76.83.52-153.68-.38-230.5-.21-18.03,3.65-24.92,23.41-24.47,50.57,1.14,101.21-1.26,151.79-.32,62.94,1.18,120.54,17.82,160.17,70.74,76.67,102.38,18.31,245.28-109.71,271.05-31.02,6.24-62.51,7.48-93.64,4.9-22.97-1.9-27.36,6.02-26.49,26.87,1.62,39.06,0,78.25.71,117.36.24,13.62-3.66,19.25-18.06,18.61-22.05-.98-44.24-1.26-66.25.08-17.03,1.04-22.04-4.89-21.87-21.7.76-77.54.34-155.09.33-232.63ZM367.3,464.43c0,22.08-.06,44.15.04,66.23.03,6.95-1.43,14.78,9.79,14.95,34.26.51,68.63,2.01,100.96-12.56,32-14.42,45.65-38.86,43.82-77.91-1.47-31.31-19.04-53.82-49.68-65.29-29.06-10.88-59.1-6.9-88.93-7.57-13.69-.31-16.68,5.81-16.23,18.07.8,21.33.22,42.72.23,64.08Z"/>
      <path class="cls-2" d="M840.78,407.6c26.46.18,52.56,2.77,78.25,9.67,13.65,3.67,20.38,10.17,19.32,25.38-1.28,18.42-.88,37.01-.13,55.49.64,15.83-3.06,20.62-19.28,13.14-30.93-14.27-64.11-19-98.03-17.34-15.54.76-33.45.37-38.46,19.78-5.19,20.13,11.31,27.55,25.37,34.16,24.47,11.5,50.1,20.59,74.32,32.54,62.53,30.85,83.86,67.05,76.08,126.13-6.3,47.79-45.92,85.43-106.08,97.11-51.9,10.07-103.43,6.08-153.95-10.54-14.42-4.74-20.57-12.42-19.48-27.97,1.29-18.42,1.03-37.03.08-55.48-.85-16.54,1.71-22.14,19.39-13.01,34.76,17.95,72.47,25.19,111.63,24,7.05-.21,14.15-1.4,21.07-2.86,11.94-2.53,21.85-8.36,23.34-21.6,1.38-12.27-6.74-20.14-16.56-25.15-13.91-7.11-28.27-13.51-42.85-19.13-23.37-9.02-45.84-19.62-66.48-33.88-72.1-49.79-64.16-153.72,14.69-192.43,28.38-13.93,51.78-18.24,97.72-17.97Z"/>
      <path class="cls-1" d="M367.29,464.43c0-21.36.57-42.75-.23-64.08-.46-12.26,2.54-18.38,16.23-18.07,29.83.67,59.87-3.3,88.93,7.57,30.64,11.47,48.21,33.98,49.68,65.29,1.83,39.05-11.82,63.48-43.82,77.91-32.33,14.57-66.7,13.07-100.96,12.56-11.22-.17-9.76-8-9.79-14.95-.1-22.08-.04-44.15-.04-66.23Z"/>
    </g>
  </g>
</svg>