<?xml version="1.0" encoding="UTF-8"?>
<svg id="Layer_2" data-name="Layer 2" xmlns="http://www.w3.org/2000/svg" viewBox="0 0 1200 1170">
  <defs>
    <style>
      .cls-1 {
        fill: #99e83f;
      }

      .cls-2 {
        fill: #1e3101;
      }
    </style>
  </defs>
  <g id="Design">
    <g>
      <path class="cls-2" d="M212.5,0h775c117.36,0,212.5,95.14,212.5,212.5v745c0,117.36-95.14,212.5-212.5,212.5H212.5c-117.36,0-212.5-95.14-212.5-212.5V212.5C0,95.14,95.14,0,212.5,0Z"/>
      <path class="cls-1" d="M259.56,820.48V306.08c0-3.75,1.61-5.64,4.83-5.64,8.58,0,18.77-.14,30.59-.4,11.8-.27,24.55-.53,38.23-.8,13.69-.27,28.18-.53,43.47-.81,15.3-.27,30.45-.4,45.48-.41,40.78,0,75.12,5.1,103.04,15.3,25.18,8.52,48.14,22.55,67.22,41.06,16.17,16.05,28.66,35.41,36.63,56.76,7.53,20.77,11.35,42.71,11.27,64.8,0,42.94-9.93,78.36-29.78,106.26-19.99,28.01-48.08,49.23-80.5,60.78-36.13,13.01-74.31,19.42-112.7,18.92-11.81,0-20.12-.13-24.95-.4-4.83-.26-12.07-.4-21.73-.41v158.59c.5,3.5-1.93,6.74-5.43,7.24-.6.08-1.21.08-1.81,0h-98.22c-3.76,0-5.64-2.13-5.64-6.43ZM370.65,397.05v166.64c6.97.54,13.41.81,19.32.81h26.57c19.48.28,38.89-2.43,57.55-8.05,15.95-4.73,30.2-13.96,41.05-26.56,10.47-12.34,15.7-29.51,15.7-51.52.42-15.57-3.62-30.94-11.67-44.28-8.46-12.89-20.68-22.87-35.01-28.57-18.71-7.28-38.7-10.69-58.77-10.06-12.88,0-24.28.14-34.21.4-9.94.27-16.78.68-20.53,1.2h0Z"/>
      <path class="cls-1" d="M938.97,747.22v66.01c0,5.91-2.15,9.4-6.44,10.47-10.57,3.31-21.32,6-32.2,8.05-12.75,2.27-25.69,3.35-38.64,3.22-34.9,0-62.26-9.12-82.11-27.37-19.86-18.24-29.79-47.49-29.78-87.75v-199.64h-47.49c-4.3,0-6.44-2.41-6.44-7.24v-79.69c0-4.29,2.42-6.44,7.25-6.44h47.49c.53-9.12,1.2-19.72,2.01-31.8.81-12.07,1.88-24.15,3.22-36.23,1.33-12.07,2.54-21.87,3.62-29.38.53-1.61,1.35-3.11,2.42-4.43,1.04-1.31,2.43-2.29,4.02-2.82l95.8-12.07c2.1-.35,3.46-.35,4.42.22,1.07.54,1.21,1.93,1.21,4.61-1.08,12.35-1.89,29.12-2.42,50.31-.54,21.2-1.08,41.74-1.61,61.58h74.87c3.22,0,4.83,2.15,4.83,6.44v81.31c.41,2.66-1.38,5.16-4.02,5.64h-76.48v172.27c0,18.25,3.09,31.26,9.26,39.04,6.16,7.79,17.57,11.68,34.21,11.68,4.83,0,9.38-.12,13.68-.41,4.29-.26,8.59-.66,12.88-1.2,1.46-.54,3.09-.4,4.42.4,1.34.8,2.02,2.55,2.02,5.23Z"/>
    </g>
  </g>
</svg>